<?xml version="1.0" encoding="utf-8"?>
<!-- Generator: Adobe Illustrator 17.1.0, SVG Export Plug-In . SVG Version: 6.00 Build 0)  -->
<!DOCTYPE svg PUBLIC "-//W3C//DTD SVG 1.1//EN" "http://www.w3.org/Graphics/SVG/1.1/DTD/svg11.dtd">
<svg version="1.1" id="Layer_1" xmlns="http://www.w3.org/2000/svg" xmlns:xlink="http://www.w3.org/1999/xlink" x="0px" y="0px" width="90pt" height="50pt" viewbox="0 0 70 70"
	 viewBox="0 0 70 70" enable-background="new 0 0 70 70" xml:space="preserve">
<polygon id="bottom" fill="#76FF03" stroke="#76FF03" points="35,59 24.9,54.1 24.9,54.1 24.9,54.1 14.3,59.3 35,69.4 55.7,59.3 
	45,54 "/>
<polygon id="right_1_" fill="#9C27B0" stroke="#9C27B0" points="14.3,59.3 14.3,48.9 24.6,43.9 35.1,49.1 "/>
<polygon id="right-2" fill="#9C27B0" stroke="#9C27B0" points="46.4,16.5 46.4,33 46.4,33 46.4,33 34.9,38.6 45.4,43.8 55.7,38.8 
	55.7,10.7 "/>
<polygon id="left_1_" fill="#FFFF00" stroke="#FFFF00" points="55.7,59.3 55.7,59.3 55.7,48.9 23.7,33 23.7,16.5 14.3,10.7 
	14.3,38.8 "/>
<polygon id="top" fill="#76FF03" stroke="#76FF03" points="23.6,16.5 23.6,16.5 35,11 46.3,16.5 55.7,10.7 35,0.6 14.3,10.6 
	14.3,10.7 23.6,16.5 "/>
</svg>
